inDegrees=no
num_controls=7
num_derivatives=13
num_iterations=126
num_multipliers=7
num_parameters=0
num_slacks=7
num_states=26
objective=0.445691
objective_accelerations=0.056890
objective_balance=0.003585
objective_effort=0.022873
objective_height=0.356774
objective_ligament=0.005569
solver_duration=1728.333617
status=Solve_Succeeded
success=true
DataType=double
version=3
OpenSimVersion=4.5
endheader
time	/jointset/ground_pelvis/pelvis_tilt/value	/jointset/ground_pelvis/pelvis_tx/value	/jointset/ground_pelvis/pelvis_ty/value	/jointset/hip_l/hip_flexion_l/value	/jointset/hip_l/hip_adduction_l/value	/jointset/hip_l/hip_rotation_l/value	/jointset/back/lumbar_extension/value	/jointset/patellofemoral_l/patellar_flexion_l/value	/jointset/knee_l/knee_flexion_l/value	/jointset/knee_l/knee_adduction_l/value	/jointset/knee_l/knee_rotation_l/value	/jointset/ankle_l/ankle_angle_l/value	/jointset/subtalar_l/subtalar_angle_l/value	/jointset/ground_pelvis/pelvis_tilt/speed	/jointset/ground_pelvis/pelvis_tx/speed	/jointset/ground_pelvis/pelvis_ty/speed	/jointset/hip_l/hip_flexion_l/speed	/jointset/hip_l/hip_adduction_l/speed	/jointset/hip_l/hip_rotation_l/speed	/jointset/back/lumbar_extension/speed	/jointset/patellofemoral_l/patellar_flexion_l/speed	/jointset/knee_l/knee_flexion_l/speed	/jointset/knee_l/knee_adduction_l/speed	/jointset/knee_l/knee_rotation_l/speed	/jointset/ankle_l/ankle_angle_l/speed	/jointset/subtalar_l/subtalar_angle_l/speed	/forceset/tau_hip_flexion_l	/forceset/tau_hip_adduction_l	/forceset/tau_hip_rotation_l	/forceset/tau_knee_flexion_l	/forceset/tau_ankle_angle_l	/forceset/tau_subtalar_angle_l	/forceset/tau_lumbar_extension	lambda_cid13_p0	lambda_cid13_p1	lambda_cid13_p2	lambda_cid13_p3	lambda_cid13_p4	lambda_cid13_p5	lambda_cid14_p0	/jointset/ground_pelvis/pelvis_tilt/accel	/jointset/ground_pelvis/pelvis_tx/accel	/jointset/ground_pelvis/pelvis_ty/accel	/jointset/hip_l/hip_flexion_l/accel	/jointset/hip_l/hip_adduction_l/accel	/jointset/hip_l/hip_rotation_l/accel	/jointset/back/lumbar_extension/accel	/jointset/patellofemoral_l/patellar_flexion_l/accel	/jointset/knee_l/knee_flexion_l/accel	/jointset/knee_l/knee_adduction_l/accel	/jointset/knee_l/knee_rotation_l/accel	/jointset/ankle_l/ankle_angle_l/accel	/jointset/subtalar_l/subtalar_angle_l/accel	gamma_cid13_p0	gamma_cid13_p1	gamma_cid13_p2	gamma_cid13_p3	gamma_cid13_p4	gamma_cid13_p5	gamma_cid14_p0
1.5	-0.3697372950203243	-0.02426630941805477	0.7631725682602938	1.102153372864641	-0.4353116990271382	-0.2153563658754035	-0.2254050566127031	0.7947742083356681	0.7947742083357364	-0.1348347170183706	-0.1468676579406416	0.1225370032919031	-0.02280235315420323	0.6817711145670106	0.2784747417143646	0.5265938527619373	-2.449016205592591	0.2107695436414755	-0.7183272999132532	0.3146923222744585	-1.988004802562566	-1.988004802562282	-0.1186350717711371	0.1310730035858347	-0.3828284857225807	0.04721742482490545	-0.1762622720479594	0.02612136082609578	-0.007805437729162299	-0.2004363793871927	0.04030671418458502	0.04618178550940102	0.1695413863429445	-19.23157228392924	-19.76537157086664	6.328676663169751	-7.217897953393225	-520.7578125866926	-64.2083445113211	-25.45954802927273	0.6683832091398816	0.6976130976006294	-0.5059478094088619	-1.295125543929768	0.7139585263672239	-0.1691270644829601	1.47615819147137	-1.308897444988731	-1.308897444988751	0.1135379324808585	0.2291216660557815	-0.4832208850065472	0.5232317074558198	5.008360146833235e-07	5.999422751742496e-07	-2.712203245769213e-06	-7.228597798699989e-08	6.983623683558433e-07	-2.942906559340393e-08	4.635292013469416e-07
1.51	-0.3628861985195527	-0.02144700509569462	0.7684121372061169	1.077600257024805	-0.4331698233577524	-0.2225465578325848	-0.2221856014196753	0.7748310960538086	0.7748310960538352	-0.1360185840177683	-0.1455465805945763	0.1186847087493223	-0.02230583326260967	0.688353707102014	0.2853445736590914	0.5212057545113996	-2.461257948966422	0.2175808921528335	-0.7195939921813861	0.329163802102683	-2.000331343485918	-2.000331343485561	-0.1181452162275569	0.1331381094750848	-0.3875659618649263	0.05208437591139875	-0.1704636909273654	0.02542787110890074	-0.007443966559173793	-0.1971282546945056	0.03947205507713174	0.04553411081671758	0.16480285936326	-19.27914210840544	-19.48232473864127	6.291052213038012	-6.854616239628102	-516.763353724678	-64.43091049806871	-26.35811704463111	0.6390527850379554	0.6754567050345748	-0.5722512505611015	-1.136310228565228	0.6610949554185166	-0.08752233349668964	1.427405744243726	-1.151664192446282	-1.151664192435337	0.01579399784137166	0.1941858668043876	-0.4593144524122156	0.4681280372100068	4.36637418367338e-07	9.110249785703922e-07	-2.047812241360456e-06	4.41516065670364e-08	6.231010425958843e-07	6.800571497438218e-08	4.160724297698326e-07
1.52	-0.3559721049915595	-0.018560244761462	0.7735944230858977	1.052935201452338	-0.430960559814874	-0.2297458331175525	-0.2188224788552164	0.754773292007425	0.7547732920074156	-0.1371977355352094	-0.1442050560263412	0.1147869787506049	-0.02176070361455839	0.6943705200113136	0.2919659440888565	0.5151372395534625	-2.471404152118471	0.2242471183401314	-0.7201439654702495	0.3434257965607367	-2.010943155466785	-2.010943155466355	-0.1176919753821876	0.1351624480221266	-0.3919155769498181	0.05693937611644877	-0.1646651098067863	0.02473438139169779	-0.007082495389100393	-0.1938201300018275	0.038637395969676	0.04488643612402321	0.1600643323835647	-19.33004931538197	-19.20223521106784	6.257945907249968	-6.524156269030279	-512.8371867780367	-64.70334089442122	-27.25672757762581	0.5552272839990989	0.6479207946082598	-0.6420311508887744	-0.8760174995735814	0.6849340615552084	-0.02578326862902386	1.434261117437235	-0.9659516564918624	-0.965951656491875	0.1062149928386611	0.2209681976141563	-0.4056486735158094	0.5208415311671625	4.046134536601579e-07	1.160084254720771e-06	-1.645432157008994e-06	1.229775086914258e-07	5.941380445607964e-07	1.483644142949003e-07	3.938759523251959e-07
1.53	-0.3490007557603036	-0.01560854600299033	0.7787127356973401	1.028179003679984	-0.4286854384810215	-0.236947872807521	-0.2153181001979863	0.7346178314941488	0.7346178314941394	-0.1383722072134412	-0.142844043826376	0.1108476871393948	-0.02116715302534075	0.6997864258539434	0.2983280496912358	0.5084197889723636	-2.479475638184613	0.2307504686520093	-0.720162013304247	0.3573950026281496	-2.019862234227662	-2.019862234227282	-0.1171971102004663	0.1370301559207899	-0.3958721421215576	0.06177065139406566	-0.1584766626886132	0.02376183616925015	-0.006775304675817222	-0.1912760794234084	0.03880612065677957	0.04388893425270805	0.1550090929184697	-19.08108462933907	-18.81572271804427	6.199877835158914	-6.32988273282201	-509.0805090232623	-64.76313134286352	-28.15562311866918	0.5178509935826615	0.623528285258458	-0.702301036787549	-0.7187265753861413	0.6290270170883755	0.02584160249526354	1.370010512824609	-0.8119592426491443	-0.8119592426566029	0.02209467502309219	0.1678695548277556	-0.3800249214220812	0.4641961844622779	4.067750350373333e-07	1.343243639422528e-06	-1.521438675218404e-06	1.618409982343157e-07	6.143670197333837e-07	2.105797772901965e-07	3.985185373963107e-07
1.54	-0.3419786317187837	-0.01259459162005374	0.7837607339979583	1.00335288856392	-0.4263460853438326	-0.2441469615471713	-0.2116756774477956	0.714381765541917	0.7143817655418968	-0.1395415357610424	-0.1414647150536341	0.1068709569799842	-0.02052530455166627	0.7045254820640793	0.3044170689818383	0.5010743773885807	-2.485387620860827	0.2370934790072553	-0.7195537754070264	0.3710346151528138	-2.02706424325908	-2.027064243258749	-0.1166633492513732	0.1388257625728654	-0.3994032865900594	0.0665989530078161	-0.1522882155704242	0.02278929094681549	-0.00646811396269264	-0.1887320288449723	0.03897484534388819	0.04289143238141176	0.1499538534533836	-18.8336440715841	-18.43262623572812	6.146562150293115	-6.172347152544756	-505.3614332223162	-64.8699076617421	-29.05572682948791	0.4198573575003324	0.5933035322528881	-0.7676233514255481	-0.4441168215882481	0.6528660702288556	0.09947387761461818	1.368342408887494	-0.6225377106000666	-0.6225377106000425	0.1139941463130458	0.2065479482965908	-0.320564532868272	0.520246798393867	3.960099877036632e-07	1.498627904600435e-06	-1.373810932012702e-06	2.037275413368527e-07	6.115084968673335e-07	2.626050835209364e-07	3.958419646635353e-07
1.55	-0.3349124609904516	-0.009521183949307664	0.7887321946591285	0.9784784922391594	-0.4239441636907231	-0.2513374233742817	-0.2078986704676088	0.6940825294201484	0.6940825294201419	-0.140704971845766	-0.1400682458968369	0.1028611595553856	-0.01983516962509959	0.7085967028528503	0.3102103194061358	0.4931191294009138	-2.489125593125228	0.2432521954230904	-0.7184342540700577	0.3842954479503549	-2.032478233802834	-2.032478233802585	-0.1160282477799471	0.1404515589500912	-0.4024795048175972	0.07141818315193763	-0.1461667340757677	0.02168424773488184	-0.006167336865236868	-0.1861859452165164	0.03897884717273569	0.04179639550565561	0.1449159422721282	-18.65348907594703	-17.99435003996323	6.083261498643909	-5.888619795682493	-501.7960822151379	-64.90946519937295	-29.95813128281849	0.3839600608305859	0.5642687938300973	-0.824156202549474	-0.2837228529691294	0.5914898611193317	0.1341827747913041	1.294253775065886	-0.4551933445974635	-0.4551933446097093	0.03784854574952313	0.137852561586346	-0.2895916993478255	0.461142244275224	3.70351215985759e-07	1.622010401631302e-06	-1.198952409350458e-06	2.49097167888548e-07	5.820491610437243e-07	3.028896721751231e-07	3.847324492436696e-07
1.56	-0.3278089369299785	-0.006391457175056225	0.7936211667043997	0.9535776991069344	-0.4214818317866832	-0.258513491685412	-0.203991195147471	0.6737382806692759	0.6737382806692819	-0.1418621408361379	-0.1386560673604362	0.09882291170218133	-0.01909716617272088	0.7119961484922249	0.3156808896829107	0.4845766542087588	-2.490666982353752	0.2491755291932656	-0.7166750722109568	0.3971282831430343	-2.036066769079963	-2.036066769079795	-0.1154099303808356	0.1419676384933479	-0.4050933723111867	0.07617265817021639	-0.1400452525811152	0.02057920452294736	-0.005866559767788007	-0.1836398615880599	0.03898284900158343	0.04070135862989893	0.1398780310908692	-18.47801778066107	-17.55896411850474	6.02466064873242	-5.626783838794426	-498.3087911428604	-64.99836333027297	-30.85109269600221	0.2855023276210621	0.5287675027483904	-0.8850687923231705	-0.004800214412787933	0.6057895410969044	0.2274059820410161	1.282742887915143	-0.2574466572749792	-0.2574466572749828	0.1106373318501353	0.1846045815027594	-0.2280943860786129	0.5072957732253178	3.392037333781967e-07	1.741694751220375e-06	-1.007212491727523e-06	2.952274933536101e-07	5.426013544502374e-07	3.342614376635636e-07	3.707120689794023e-07
1.57	-0.3206749056473072	-0.003208735992847063	0.7984218491014855	0.928672722618741	-0.4189613664220931	-0.2656694313611832	-0.1999576187511538	0.6533674703983487	0.6533674703983152	-0.1430125921493245	-0.1372296763955988	0.09476090839955459	-0.01831178482468451	0.7146901592220388	0.3207986705611882	0.4754707739413951	-2.489949252956525	0.2548756002311076	-0.7144090152617104	0.409498214350637	-2.037785737104778	-2.037785737104847	-0.1146804612676884	0.1432956587161192	-0.4072322634771723	0.08089015900904892	-0.1339296126585502	0.01921303051900418	-0.005593848921130786	-0.1811481977989645	0.03890223598587963	0.03959681290544102	0.1348127801202463	-18.34530919949213	-17.11290302007196	5.965433004549723	-5.261858847287418	-495.0186842996332	-65.12291906499676	-31.72454068768583	0.2433409458833281	0.4936558339120412	-0.9366131806096384	0.1669061109720247	0.5456511014074941	0.2420863598009403	1.200800971721508	-0.0827582521657364	-0.0827582522013711	0.0543768331932562	0.1044736112359465	-0.1954700450412852	0.4517311254217414	3.011953621585619e-07	1.856756416507206e-06	-7.943708304037266e-07	3.423086924603808e-07	4.906679593944035e-07	3.544921741948215e-07	3.53053107659633e-07
